<svg width="15" height="15" viewBox="0 0 15 15" fill="none" xmlns="http://www.w3.org/2000/svg">
<g opacity="0.64">
<path d="M13.4712 7.81005C13.4712 10.987 10.8957 13.5625 7.71876 13.5625C4.54177 13.5625 1.96631 10.987 1.96631 7.81005C1.96631 4.63306 4.54177 2.0576 7.71876 2.0576C10.8957 2.0576 13.4712 4.63306 13.4712 7.81005ZM14.7495 7.81005C14.7495 3.92706 11.6017 0.779282 7.71876 0.779282C3.83577 0.779282 0.687988 3.92706 0.687988 7.81005C0.687988 11.693 3.83577 14.8408 7.71876 14.8408C11.6017 14.8408 14.7495 11.693 14.7495 7.81005Z" fill="white"/>
<path d="M10.9414 7.81001C10.9414 9.58927 9.49904 11.0317 7.71978 11.0317C5.94051 11.0317 4.49813 9.58927 4.49813 7.81001C4.49813 6.03074 5.94051 4.58836 7.71978 4.58836C9.49904 4.58836 10.9414 6.03074 10.9414 7.81001ZM12.2301 7.81001C12.2301 5.31904 10.2107 3.2997 7.71978 3.2997C5.2288 3.2997 3.20947 5.31904 3.20947 7.81001C3.20947 10.301 5.2288 12.3203 7.71978 12.3203C10.2107 12.3203 12.2301 10.301 12.2301 7.81001Z" fill="white"/>
<path d="M8.33806 7.80981C8.33806 8.15171 8.0609 8.42887 7.719 8.42887C7.3771 8.42887 7.09994 8.15171 7.09994 7.80981C7.09994 7.46791 7.3771 7.19075 7.719 7.19075C8.0609 7.19075 8.33806 7.46791 8.33806 7.80981ZM9.57619 7.80981C9.57619 6.78411 8.7447 5.95262 7.719 5.95262C6.69331 5.95262 5.86182 6.78411 5.86182 7.80981C5.86182 8.8355 6.69331 9.66699 7.719 9.66699C8.7447 9.66699 9.57619 8.8355 9.57619 7.80981Z" fill="white"/>
</g>
</svg>
