<svg width="80" height="79" viewBox="0 0 80 79" fill="none" xmlns="http://www.w3.org/2000/svg">
<g clip-path="url(#clip0_114_1370)">
<path fill-rule="evenodd" clip-rule="evenodd" d="M73.4956 75.8734C73.5048 75.099 73.8189 74.3595 74.3698 73.8151C74.9207 73.2708 75.6639 72.9655 76.4384 72.9655C77.2128 72.9655 77.956 73.2708 78.5069 73.8151C79.0578 74.3595 79.3719 75.099 79.3811 75.8734C79.3811 77.504 78.0775 78.8059 76.434 78.8059C76.0477 78.8091 75.6647 78.7354 75.3071 78.5892C74.9496 78.4431 74.6247 78.2273 74.3512 77.9544C74.0778 77.6815 73.8614 77.3571 73.7145 76.9998C73.5676 76.6425 73.4932 76.2597 73.4956 75.8734ZM73.9726 75.8734C73.9715 76.361 74.1151 76.8381 74.3852 77.2441C74.6553 77.6501 75.0399 77.9668 75.4901 78.1541C75.9404 78.3414 76.4361 78.3909 76.9145 78.2963C77.3929 78.2017 77.8324 77.9672 78.1775 77.6226C78.5225 77.278 78.7576 76.8388 78.8528 76.3605C78.9481 75.8823 78.8993 75.3865 78.7126 74.936C78.5259 74.4855 78.2097 74.1005 77.8041 73.8298C77.3984 73.5592 76.9216 73.4149 76.434 73.4154C76.1109 73.4149 75.7909 73.4781 75.4922 73.6014C75.1936 73.7248 74.9222 73.9057 74.6936 74.134C74.465 74.3623 74.2837 74.6335 74.16 74.9319C74.0362 75.2304 73.9726 75.5503 73.9726 75.8734ZM77.7752 77.5412H77.2346L76.3876 76.0185H75.7822V77.5412H75.306V74.2441H76.6857C77.294 74.2441 77.8224 74.4293 77.8224 75.1196C77.8224 75.7714 77.388 76.0051 76.9491 76.0185L77.7748 77.5412H77.7752ZM75.7822 74.7228V75.5452H76.2889C76.7321 75.5452 77.3408 75.6184 77.3408 75.171C77.3408 74.7487 77.0005 74.7228 76.6045 74.7228H75.7822ZM44.3725 7.74345C44.546 7.74452 44.716 7.69396 44.8607 7.59821C45.0055 7.50245 45.1185 7.36581 45.1854 7.20567C45.2523 7.04553 45.27 6.86911 45.2364 6.69885C45.2028 6.52859 45.1193 6.37217 44.9965 6.24948C44.8738 6.12679 44.7173 6.04337 44.547 6.00983C44.3768 5.97628 44.2003 5.99413 44.0402 6.0611C43.8801 6.12807 43.7435 6.24113 43.6479 6.38592C43.5522 6.53071 43.5017 6.70068 43.5028 6.87423C43.5035 7.10463 43.5954 7.3254 43.7583 7.48828C43.9213 7.65115 44.1421 7.74289 44.3725 7.74345ZM32.6136 6.1965C32.7105 6.19749 32.8066 6.1794 32.8964 6.14325C32.9863 6.1071 33.0681 6.05361 33.1373 5.98582C33.2065 5.91803 33.2617 5.83728 33.2996 5.74818C33.3376 5.65908 33.3577 5.56336 33.3587 5.46651V5.46191C33.3598 5.31542 33.3175 5.17188 33.237 5.04945C33.1566 4.92702 33.0416 4.8312 32.9067 4.77413C32.7718 4.71706 32.623 4.70129 32.4791 4.72883C32.3352 4.75636 32.2027 4.82596 32.0984 4.92882C31.9941 5.03167 31.9226 5.16316 31.893 5.30664C31.8635 5.45013 31.8771 5.59915 31.9323 5.73487C31.9874 5.87059 32.0816 5.98689 32.2029 6.06906C32.3242 6.15124 32.4671 6.19559 32.6136 6.1965ZM23.7977 24.2092L23.4394 23.8329C24.4428 22.8964 25.5027 21.418 25.6762 20.5463C25.833 19.7394 26.9932 19.8619 26.78 20.7486C26.4894 21.8704 25.121 23.2271 23.7977 24.2092ZM16.3418 6.49878C14.4985 7.30069 14.228 9.18503 15.5241 10.316C17.0769 11.6798 19.6452 10.4966 19.3981 8.40529C21.4886 8.51148 22.834 6.35287 22.5037 4.84481C23.4289 4.0429 23.5239 2.34043 22.4071 1.6765C21.2101 0.959049 20.0926 1.23039 19.3705 2.61804C17.4644 2.47255 15.6311 3.98646 16.3431 6.49878L15.4513 6.11665C14.2844 3.66746 16.3255 1.17688 18.8379 1.75552C19.3425 0.538029 21.2089 -0.724194 23.2324 0.501237C24.8475 1.47581 25.182 3.9919 23.4678 5.21189C24.2752 7.56367 22.6735 9.48689 20.2222 9.25694C19.9295 12.2852 17.0769 12.6715 15.2381 11.2358C14.1954 10.4284 13.7748 9.30711 13.5732 8.46089C13.3717 7.56701 13.3717 6.75633 12.4795 5.83652C11.8072 5.1358 10.6182 5.1613 10.6182 5.1613C10.6182 2.96506 8.56657 0.958213 6.01662 1.9307C5.11312 1.1543 4.00434 1.07946 3.20202 2.04024C2.74211 2.59588 2.47871 4.06506 3.91277 4.74237C3.83417 6.73877 5.3644 8.0173 7.592 7.84086C7.6869 8.90365 8.86383 9.89579 9.90029 10.0308L9.89569 10.566C8.7798 10.4598 8.1744 10.8486 7.43395 11.7693C4.81586 11.6405 2.97792 12.8091 3.05568 14.6959C1.21231 15.0438 0.869474 16.9699 1.91262 17.9989C2.95576 19.0278 4.49142 18.6214 5.01278 17.396C6.86953 17.7522 8.51096 16.4197 8.58371 14.8807C10.3272 14.8807 11.073 14.1938 11.3703 12.5992L12.0146 12.6494C12.2103 14.3635 11.4263 16.002 9.35133 15.8064C9.29029 17.8588 7.30518 19.0027 5.44383 18.302C4.58089 19.9284 2.59662 20.5785 0.925498 18.9885C-0.68876 17.4553 -0.100502 14.8197 2.00167 14.1913C2.05811 12.1757 3.53774 10.2637 6.43053 11.0008C6.43053 11.0008 6.80054 10.104 7.70404 10.0476C7.09781 9.80381 6.64418 9.47017 6.52126 8.85098C4.34007 9.31297 2.49042 7.30403 2.98377 5.28715C1.02668 4.25864 0.993648 2.31869 1.96906 1.16517C2.97834 -0.0406113 4.67705 -0.304011 6.1918 0.985388C8.75387 -0.433202 11.6462 1.31067 11.4736 4.22603C13.2676 4.10562 14.3542 5.67932 14.1527 7.30487C14.4554 6.587 14.792 6.25713 15.4542 6.11581L16.3435 6.49878H16.3418Z" fill="#828282"/>
<path fill-rule="evenodd" clip-rule="evenodd" d="M20.7416 2.99386L21.1793 3.30158C20.3323 5.07847 18.841 6.95738 17.5741 7.99425L17.0921 7.63302C17.9889 6.16635 19.9288 3.73807 20.7416 2.99219V2.99386ZM8.20633 12.7446L8.499 13.1707C7.43328 14.264 5.47158 15.716 4.42928 16.2227L4.01369 15.7796C5.02255 14.6867 6.95623 13.2652 8.20633 12.7446ZM10.74 7.46787L10.2303 8.10128C8.84058 7.18691 6.105 4.74149 5.48245 3.85806L5.91351 3.41446C7.23719 4.08592 9.82686 6.3963 10.7408 7.46787H10.74ZM8.16619 30.7272C8.3234 31.5216 8.19504 32.4096 8.90706 33.2671C9.15373 33.5703 10.5548 35.4032 11.5586 36.3451C10.191 36.8832 7.44331 38.0104 5.47033 38.2454C5.07272 38.3018 4.63038 38.5765 4.25786 38.7889C4.0116 39.2149 3.75322 39.9667 3.64703 40.8129C3.56801 41.4308 3.57971 42.1052 3.57971 42.7976C3.57971 43.4088 3.89997 45.3216 4.58899 46.6047C5.26672 47.8962 5.92229 48.4669 6.73088 48.8482C6.88265 48.7696 7.2351 48.7253 7.79033 48.7082C9.28167 48.6747 10.4477 49.4984 10.9578 50.2049C11.148 50.4771 11.5515 50.5331 12.062 50.5331C13.2669 50.5331 14.5952 50.1372 15.8457 49.6551C16.1154 49.4361 16.8776 48.9306 17.6172 48.3482C18.3631 47.7628 22.5001 44.2509 24.3393 43.3658C25.3038 43.8838 26.8897 44.5573 28.5202 44.5573C28.7707 44.562 29.0209 44.5374 29.2657 44.4842C29.7816 44.3717 30.4317 44.1451 31.2558 43.9787C32.7304 43.6927 34.4622 43.4419 34.9676 43.4511C36.3352 43.4678 40.3079 43.5765 41.2445 43.5765C42.2408 43.5765 43.6535 43.4929 44.1979 43.431C45.0282 43.1588 46.8829 42.6454 48.6606 41.8213C50.4379 41.0387 54.1765 38.4402 54.7878 37.8494C55.0617 37.5988 55.3135 37.3249 55.5403 37.0308C55.6072 36.9351 55.6423 36.8908 55.6423 36.8063C55.6423 36.7336 55.6189 34.189 55.6189 34.189C55.6189 34.189 56.5111 33.1998 56.8582 32.8595C56.8834 32.8279 56.8952 32.7877 56.8912 32.7475C56.729 32.2378 56.5722 30.657 56.6679 29.0519L55.7653 28.6284C55.7264 30.6281 54.9977 32.321 54.3187 33.3817C52.9741 33.5999 50.4053 34.3851 49.4809 35.4396L49.986 35.5855C50.8598 35.1055 51.7838 34.7723 52.8445 34.7723C53.7856 34.7723 54.1957 35.0156 54.1957 35.2819C54.1957 35.4642 54.0222 35.9091 53.9545 36.0491C53.8751 36.2063 53.8199 36.4137 53.6618 36.5889C52.3942 37.9586 50.9551 39.1334 49.2158 40.1042C48.0339 40.7665 46.9226 41.2143 45.1846 41.6988C44.6582 41.8502 43.9466 42.0613 43.4871 42.2244C42.8303 42.2035 39.4116 42.1023 37.411 42.1023C35.4104 42.1023 31.2851 42.3916 29.9723 42.7232C29.379 42.8745 29.2327 43.1153 28.5374 43.1153C27.2484 43.1153 25.5551 42.4652 24.5124 41.9543C24.361 42.0019 23.9919 42.1633 23.616 42.3544C22.8697 42.7232 21.2329 45.0013 20.28 44.3094C19.7812 45.307 17.6841 46.2581 16.9608 47.2983C17.0444 46.7486 17.886 43.2357 17.9755 42.525C17.9868 42.3995 17.9981 42.298 17.914 42.1725C17.151 40.8919 14.9978 40.0699 13.7875 39.8312C13.4346 39.7677 13.2611 39.7112 13.0136 39.661L11.1079 39.0828L9.33518 39.664L11.3876 40.0528L8.79166 41.7716C9.24529 41.6043 12.0327 40.8246 12.2451 40.7623C12.4692 40.6958 12.7769 40.6289 13.1193 40.7422C13.4956 40.8748 14.571 41.1269 15.2215 41.3493C15.5919 41.4802 16.2086 42.175 16.3713 42.5459C16.4382 42.6972 16.4607 43.0171 16.4996 43.737C16.5285 44.1886 16.4214 44.8241 16.2985 45.3049C16.0125 46.5897 15.4402 47.5818 15.2499 47.9359C15.002 48.4218 14.6504 48.5848 14.3017 48.7483C13.7356 49.0138 13.0525 49.1793 12.2786 49.1881C11.7518 49.1911 11.4039 49.1656 11.1685 48.8603C10.4624 47.9037 8.71348 46.976 6.92488 47.3205C5.83198 46.6562 4.7441 44.5147 4.7441 42.8051C4.7441 41.7816 5.25501 40.1782 5.52928 39.365C7.32374 39.1217 10.8943 37.7637 12.6323 36.9698C12.9968 36.9568 13.994 36.6006 14.9531 36.6006C17.2852 36.6006 19.6111 38.6438 21.0134 40.029C21.2421 39.6468 21.6823 39.0699 22.8689 39.0699C24.5224 39.0699 25.4761 40.575 25.9464 42.1178L26.8094 41.4906C26.6639 40.6084 26.1927 39.6372 25.5037 38.9428C24.9263 38.3704 23.8384 37.8975 22.9926 37.8975C22.4771 37.8975 21.9499 38.01 21.6129 38.01C20.4297 38.01 19.9426 37.4861 19.0793 36.877C18.1373 36.2323 16.3893 35.2882 15.132 35.2882C14.3251 35.2882 13.9614 35.598 13.2924 35.6043C12.322 35.6043 11.9583 35.2008 11.4821 34.6222C11.2802 34.3713 10.293 33.49 10.0296 33.1363C9.87829 32.9272 9.60318 32.1002 9.50786 31.6901L8.16619 30.721V30.7272Z" fill="#828282"/>
<path fill-rule="evenodd" clip-rule="evenodd" d="M9.50769 31.6982C9.79409 32.0013 10.0629 32.3345 10.4216 32.6063C10.7691 32.8638 11.1951 33.0917 11.6053 33.317C12.1772 33.6419 12.8324 34.0123 13.4771 34.2201C14.0432 34.3874 14.7778 34.4618 15.4684 34.4618C16.4485 34.4618 17.6095 34.2594 18.5678 34.708C19.2121 35.0107 19.2505 35.6889 19.7669 35.8854C20.5612 36.1931 22.7713 36.2659 23.9942 36.2659C26.4325 36.2659 29.0556 35.9573 30.6147 35.5886L29.8521 34.7524C28.7759 34.9196 25.6294 35.2687 24.1844 35.2687C22.1433 35.2687 20.2205 34.9434 20.2205 34.098C20.2205 33.5202 20.8426 32.6736 22.0425 32.6736C23.3202 32.6736 25.2652 33.4483 25.6235 33.5595C25.9718 33.6603 26.1294 33.639 26.3464 33.5294L27.0927 33.1448C26.1056 32.6795 22.6312 31.4854 21.4188 31.4854C20.8522 31.4854 20.5441 31.569 20.1737 32.046C19.7029 32.6402 18.4645 33.19 16.4907 33.19C15.4087 33.19 13.8567 32.9909 13.5093 32.8555C12.9139 32.6084 11.7487 31.9357 11.0032 31.3976C10.0387 30.7019 9.19789 29.9343 8.62594 29.0341C8.46146 28.7752 8.37442 28.4746 8.37508 28.1678C8.37968 27.9316 8.44783 27.7217 8.46455 27.5449C8.63806 27.7857 8.82955 27.9604 9.06494 28.1812C10.1077 29.1993 11.6425 29.9623 13.2291 30.2654C13.689 30.3524 14.0875 30.4167 14.5357 30.4167C15.208 30.4167 15.8318 30.0522 16.229 29.706L15.6114 28.9827C15.4095 29.0412 14.9956 29.0412 14.7146 29.0412C12.4151 29.0412 9.50184 27.5361 8.82955 25.7976C8.76767 25.625 8.67694 25.5263 8.75011 25.3662C8.81784 25.2152 8.90146 24.872 8.94076 24.5588C9.0804 24.7156 9.36136 24.9489 9.7088 25.181C10.5667 25.7245 12.199 26.485 12.51 26.6781C13.1816 26.495 13.8319 26.2412 14.45 25.921C15.029 25.6113 15.6748 25.4477 16.3314 25.4444C18.0138 25.4444 19.937 26.403 21.7666 27.2969L23.0012 26.8119C21.3924 25.6764 17.8829 24.0943 15.9417 24.0943C14.787 24.0943 13.7108 24.9305 12.9427 24.9305C12.0004 24.9305 9.2882 23.6135 9.2882 22.5089C9.2882 21.6673 11.0475 21.1819 13.8626 20.8432C13.3723 21.5679 12.9107 22.3103 12.4778 23.0704L13.1949 23.4676C17.6078 17.0808 22.1935 12.935 26.0491 10.403C27.451 9.48825 27.7708 8.94975 28.265 7.94674C29.4641 5.50173 30.5854 3.62282 32.548 3.62282C33.4615 3.62282 34.2078 4.13875 34.717 4.77216L36.1469 5.19903L34.7062 6.17444L36.1774 6.75768C34.2601 7.3012 31.6374 9.15754 30.575 11.8965C28.5343 12.0056 27.548 13.6525 26.8866 15.0455C26.4325 15.9825 25.7205 16.3512 24.6707 17.0578L16.318 22.8819L17.4669 23.0445L25.1816 17.8693C26.7122 16.8442 27.4351 16.0858 27.8001 15.3608C28.5058 13.9288 29.2852 12.8627 30.7987 12.8627C31.5395 12.8627 32.341 13.1859 32.9686 13.7825L34.3249 14.2257L32.8452 15.1283L34.0895 15.8901C30.5407 17.0014 28.3591 19.5371 27.0768 24.387L28.0133 24.5986C28.4837 22.9947 28.9494 21.5189 29.7844 20.2182C31.833 20.1964 33.9051 20.1208 35.9454 20.1208C41.3806 20.1208 45.896 20.3499 48.3327 21.0657L47.4697 19.5789C44.8629 19.1332 41.0846 18.897 35.9454 18.897C34.2245 18.897 32.4752 18.9643 30.7489 18.9806C31.8585 17.7966 33.474 16.8015 35.9575 16.0335L34.1911 15.066L36.1532 13.979L33.4849 12.9852C33.0196 12.5708 32.4418 12.1837 31.7072 11.9997C32.5655 9.37494 35.4746 7.85058 38.2545 6.79531L36.2995 6.00093L38.2646 4.9164L35.2384 3.95729C34.4478 3.02327 33.6915 2.59766 32.5208 2.59766C29.7171 2.59766 28.5238 5.03681 27.4138 7.2063C26.8285 8.34184 26.4547 8.82181 25.4571 9.47738C23.3002 10.8826 20.5466 13.0471 17.9118 15.8161C16.5446 14.8265 13.7309 11.9387 12.9674 10.352C12.6702 10.7229 12.3725 11.5298 12.3725 11.5298C12.6651 11.8325 15.9681 15.1793 17.1998 16.5929C17.1053 16.6932 17.0083 16.802 16.9188 16.9081C15.6073 17.1636 12.2094 17.4885 11.05 17.3321L10.3945 18.4919C11.2637 18.4045 14.6423 18.0065 16.0504 17.9279C15.6148 18.4463 15.1945 18.9771 14.7895 19.5204C10.4509 20.0125 7.54642 20.906 7.54642 22.5056C7.54642 22.7748 7.64174 23.0746 7.64174 23.3639C7.64174 24.0329 7.39507 24.2837 6.91301 24.5802C6.61031 24.7825 6.58272 24.9113 6.72278 25.0986C6.85071 25.293 7.51715 26.2856 7.51715 26.4783C7.51715 26.8032 7.204 27.1201 6.94019 27.4094C6.72194 27.6602 6.73114 27.7276 6.90632 28.0453L8.16729 30.7282L9.50519 31.6986L9.50769 31.6982ZM63.3635 16.7681C63.0852 17.0515 62.8389 17.3645 62.6289 17.7017L61.932 16.7175C64.27 13.5969 70.4481 12.1335 74.0759 11.8781V10.2057C73.6101 10.3487 73.1143 10.5055 72.6565 10.615C72.0063 10.7743 71.4068 10.9156 70.903 10.9039C70.3992 10.8922 69.9886 10.689 69.8038 10.4219C69.3105 9.72614 69.7649 8.67506 71.3562 7.69129L70.1065 6.64605C69.1353 7.90284 68.1833 9.29258 67.2075 10.1162C66.322 10.873 65.3975 11.2493 64.6454 10.694C64.2419 10.3913 64.0964 10.2504 64.0576 9.47153C64.1127 8.31592 64.8022 6.56118 65.4247 5.42313L63.9388 5.2538C63.6754 6.9914 62.9634 8.46936 62.2008 9.68893C61.2542 11.2137 60.0267 12.2761 58.7758 13.1591L57.9517 12.3405C58.961 11.7401 60.2328 10.7651 61.1029 9.42135C62.1293 7.85685 62.953 5.92484 62.953 4.17261L67.253 4.57942C66.6472 5.34787 65.6497 7.09717 65.2684 8.35271C65.0777 9.00828 65.0831 9.5309 65.3248 9.71527C65.778 10.0548 66.5791 9.50623 67.3475 8.67506C68.4467 7.50022 69.512 5.72792 69.9886 5.09953L73.1001 7.67958C71.7154 8.41584 70.3703 9.25203 70.64 9.72154C70.8859 10.1543 71.7689 10.0247 72.748 9.72154C73.5498 9.47575 74.3212 9.14012 75.0476 8.72105V12.9287C73.5512 12.9011 71.0063 13.185 68.5725 13.9276C69.1445 14.7491 70.8206 15.0518 71.8755 15.1952L71.3391 18.6044C68.67 17.4889 66.6008 16.8266 63.3619 16.7681L64.433 15.8454C66.8199 15.8934 69.2202 16.5912 70.5756 17.2752L70.7713 15.9829C69.5446 15.8157 68.0081 15.125 67.3513 14.3436C66.2923 14.7357 65.2842 15.2345 64.4326 15.8458L63.3619 16.7681H63.3635Z" fill="#828282"/>
<path fill-rule="evenodd" clip-rule="evenodd" d="M50.5427 27.6093L51.5336 25.4557C50.3677 24.0674 49.2985 22.6006 48.3335 21.0658L47.4701 19.5782C45.48 15.7882 46.2087 13.9854 45.1489 12.3138C44.2633 10.9395 39.9971 11.7991 39.2905 11.9434L40.5298 9.90226L38.0927 10.0933L40.1539 7.64037C40.373 7.32388 40.4855 7.03497 40.7204 6.17914C41.085 4.89015 42.2005 2.68848 45.4411 2.68848C49.0447 2.68848 50.1656 5.60217 51.7359 6.87484C53.5237 8.31016 55.8629 10.3224 57.953 12.3427L58.777 13.1613C59.8373 14.2429 60.9306 15.3617 61.9332 16.7188L62.6289 17.703C66.9733 24.0422 72.3609 36.1564 74.7495 41.7045C74.9794 42.238 75.1416 42.7803 75.2875 43.2C73.4863 42.1971 71.7368 41.1038 70.0459 39.9243L68.9802 39.1717C68.3082 38.6884 67.6431 38.196 66.985 37.6946L65.8859 36.8279C65.2236 36.2981 64.5789 35.7509 63.9296 35.2027L66.0987 47.8413C66.2622 48.5872 66.8956 48.458 67.4111 47.8078C67.9153 47.1556 68.1164 46.9788 67.9153 46.1037L65.8863 36.8287L66.9855 37.6954L68.9413 45.5823C69.1269 46.2881 69.4234 46.5176 70.2637 46.5515C71.0882 46.5933 71.2672 46.2718 71.0882 45.7153L68.9802 39.1721L70.0459 39.9247L72.0473 45.8106C72.549 47.3103 72.0473 47.4892 71.1438 47.4892C70.247 47.4892 69.4229 47.2802 68.9279 47.5963C68.4413 47.9161 67.8183 48.7795 67.0791 49.5484C66.4169 50.2206 65.4577 50.0405 65.2679 48.7795L62.8677 34.2679C61.3256 32.8915 59.8639 31.4276 58.4898 29.8833C57.8766 29.6199 57.2694 29.345 56.6682 29.0584L55.7659 28.6349C55.4407 28.4882 55.1994 28.3866 55.1037 28.3523C54.4481 29.1496 53.8076 30.0401 53.0692 30.6798C52.6712 31.0143 52.4003 31.2062 51.8195 31.2062C51.6339 31.2062 51.4161 31.2062 51.2029 31.0891C50.9838 30.9637 50.776 30.707 50.5406 30.3604C50.3734 30.0903 50.097 29.7454 49.8788 29.3591C49.4076 28.5647 48.8916 27.5738 48.4317 26.7627C47.9162 25.8542 47.4701 25.1781 47.4066 25.0611C47.3163 24.8867 47.0696 24.6739 47.0696 24.6739C46.8187 25.0891 46.6272 25.8864 46.6272 26.3229L45.725 26.0139C45.8425 25.4248 46.0837 24.6517 46.2129 24.2817C46.2129 23.959 45.8592 23.5325 45.567 23.5325C45.1518 23.5325 44.7308 23.9841 44.5217 24.8499L43.5969 25.2479C43.7081 23.8544 44.1902 22.3238 45.5691 22.3238C46.6858 22.3238 47.3748 23.1788 47.8962 23.9786C48.4347 24.7688 50.1723 27.1461 50.5435 27.6118L51.2371 28.4836C51.3626 29.0292 51.5896 29.3465 51.697 29.52C51.937 29.8938 52.2071 29.862 52.5604 29.5347C52.7235 29.38 53.2494 28.9535 53.7603 28.4234C54.1981 27.961 54.635 27.3949 54.8089 27.1139C55.3131 27.3443 56.2547 27.7983 57.0118 28.129C53.7549 24.112 50.638 19.2383 49.2867 15.9207C48.7252 14.5519 49.819 14.0953 50.3458 15.4495C51.7807 19.1053 55.9737 25.587 59.0526 28.9857C62.6122 32.9154 69.1424 38.6014 73.3877 40.8871C72.771 39.6868 71.9578 37.9605 71.0217 35.9578C65.8595 33.0366 60.6401 27.6741 58.1963 23.0617L59.2775 23.1821C61.5377 27.1883 66.9466 32.5324 70.1429 34.0856C67.2162 27.8778 63.4154 20.0314 60.4486 16.6436C56.761 12.4459 52.7473 9.20153 50.8291 7.51703C48.9293 5.85177 48.1533 3.75963 45.4256 3.75963C43.1834 3.75963 42.0006 5.38058 41.5512 7.01825C41.4567 7.33475 41.3998 7.53376 41.1699 7.86447L40.1108 9.14342L42.4041 8.85744L41.075 10.72C41.075 10.72 44.6798 9.91146 45.9366 11.6223C47.2987 13.4619 46.4186 15.5419 48.6542 19.5661C49.6296 21.3329 51.9943 24.5171 52.7908 25.2141L51.2388 28.4836L50.5427 27.6081V27.6093ZM15.1753 28.1646L14.626 27.7996C15.0827 27.4295 15.5882 27.1241 16.1282 26.8919C16.4169 26.7742 16.7246 26.7098 17.0363 26.7017C17.6534 26.7017 18.1739 26.9584 18.6903 27.2335C19.4984 27.6595 20.412 28.1646 21.1073 28.1646C21.3702 28.1646 21.6341 28.1081 21.9313 28.1081C22.6266 28.1081 23.2876 28.4221 23.6635 28.4221C23.8989 28.4221 24.0615 28.2085 24.2129 27.9906C24.5946 27.4413 25.121 27.037 25.7832 26.7564C26.5057 26.4571 27.3753 26.3383 28.3169 26.3383C29.0619 26.3383 29.7747 26.4391 30.1385 26.5231C30.1385 26.5231 29.5778 27.2063 29.4386 27.3593C28.686 27.3593 27.2578 27.3309 26.3447 27.7034C25.7849 27.93 25.5771 28.2616 25.5771 28.7273C25.5771 29.4005 26.3338 29.6697 27.175 29.9272C27.6738 30.0736 28.2291 30.1129 28.6994 30.1129C29.2718 30.1129 30.3814 29.8917 31.4751 29.6475C32.7984 29.3586 34.0314 29.0204 34.3905 28.882L34.8609 29.7404C33.3975 30.2421 31.8895 30.7066 30.4939 30.9946C29.7091 31.1552 28.9528 31.253 28.2851 31.253C27.1692 31.253 25.9412 30.7873 24.9382 30.3052C24.097 29.9017 23.3457 29.5108 22.6726 29.5108C21.9163 29.5108 21.2093 29.7717 20.5102 30.1672C20.1615 30.3692 19.1305 31.0808 18.2107 31.4403C17.5041 31.7175 16.9263 31.8772 16.2097 31.8772C15.5696 31.8772 15.1946 31.7878 14.8639 31.5244L15.9689 30.8466C16.1144 30.9913 16.3665 31.0139 16.5296 31.0139C16.6926 31.0139 16.8766 30.9963 17.3089 30.8174C17.5597 30.7107 17.9247 30.4921 18.1384 30.3495C18.5761 30.0665 18.7212 29.9038 18.8909 29.7692C19.2254 29.4966 19.3508 29.1525 18.9244 28.7658C18.7121 28.5677 18.4824 28.3893 18.2379 28.2327C17.857 28.0019 17.5823 27.7787 16.882 27.7787C16.0676 27.7787 15.4893 28.0007 15.1753 28.1637V28.1646Z" fill="#828282"/>
<path fill-rule="evenodd" clip-rule="evenodd" d="M30.6257 28.6098C30.6257 28.6098 29.9639 28.4237 29.7339 28.4104C30.1461 27.8541 30.6503 27.3723 31.2248 26.9859C32.1225 26.3751 33.0582 26.0373 34.486 25.9578C34.8785 25.9344 35.6692 25.8508 36.1069 25.8742C36.5037 25.8855 37.1818 25.9185 37.7927 26.0302C38.2408 26.1138 38.6439 26.2392 38.9796 26.2894C39.1887 26.3232 39.9107 26.312 40.1565 26.2727C41.1654 26.1154 42.3766 25.7291 43.0159 25.3809L43.286 26.3425C41.9176 27.0382 40.3756 27.7138 38.9742 27.7138C38.2521 27.7138 37.4895 27.6553 36.7788 27.5913C35.5245 27.4701 34.4471 27.3078 34.0612 27.3078C33.0577 27.3078 31.5898 27.7786 30.6257 28.6064V28.6098ZM29.6156 34.0061L28.3379 33.4179C30.1102 32.5152 32.8282 31.6117 33.9491 31.4332C35.0537 31.2567 36.3381 31.1255 37.071 30.8788C37.4022 31.7304 38.0636 32.6348 39.021 32.6348C39.3735 32.6348 39.9521 32.3718 40.5236 32.1197C41.1679 31.8358 41.8197 31.5193 42.1542 31.3671C42.5188 31.2078 43.7011 30.6944 44.7046 30.2458C45.0867 30.0786 46.1403 29.5731 46.1905 29.5451L46.869 29.9042C46.6671 30.7897 46.3301 31.878 45.9492 32.6511C45.8029 32.9596 45.6515 33.2126 45.4893 33.3911C45.2025 33.7281 44.7326 34.1591 44.1159 34.5973C43.4369 35.0794 42.6246 35.5648 41.7499 36.0652C41.0709 36.4557 40.3819 36.8512 39.7042 37.1652L39.3388 36.5197C40.4041 35.9139 41.4865 35.1525 42.4326 34.446C42.8871 34.1115 43.3295 33.7732 43.638 33.4864C43.8248 33.323 43.9902 33.1368 44.1305 32.932C44.4115 32.5173 44.8706 31.6987 45.0114 31.309C44.6134 31.5051 43.1049 32.2171 42.4326 32.57C41.6755 32.9684 40.4534 33.6047 39.7523 33.9246C39.2154 34.1754 38.7271 34.3172 38.3851 34.3172C37.6133 34.3172 37.2659 33.762 37.0739 33.4312C36.5881 32.5616 36.0705 32.4776 34.6908 32.4638C33.092 32.4383 30.9175 33.0997 29.6106 34.0082L29.6156 34.0061ZM37.0994 29.997C37.0994 29.997 36.9193 29.2399 36.8252 28.9652C36.9902 28.9155 37.1617 28.8906 37.334 28.8912C37.8173 28.8912 38.993 29.027 39.4851 29.027C41.3247 29.027 42.0079 28.4417 42.5522 27.9609C43.0121 27.5378 43.4888 27.2033 44.738 27.2033C45.8426 27.2033 47.1161 27.6469 47.474 27.8238L47.395 28.8272C46.7978 28.5107 46.1341 28.3404 45.4584 28.3301C45.0039 28.3301 44.5938 28.3665 44.2973 28.5191C43.9708 28.6842 43.7814 28.9372 43.4724 29.1914C43.1434 29.4543 42.699 29.7127 42.117 29.9314C41.535 30.15 40.8046 30.293 39.7297 30.293C38.3107 30.293 37.5439 30.0493 37.1015 30.0004L37.0994 29.997Z" fill="#828282"/>
<path fill-rule="evenodd" clip-rule="evenodd" d="M25.4175 37.6069L26.2754 37.254C27.0489 37.5567 28.1806 37.8983 28.96 37.8983C29.4253 37.8983 29.8233 37.7248 30.1373 37.5843C30.3953 37.4723 33.2212 36.0817 34.6276 35.572C35.07 35.409 35.524 35.3212 35.7485 35.3212C36.0793 35.3212 36.1081 35.4788 36.1967 35.6297C36.4714 36.0545 38.5548 39.0322 38.7567 39.2671C40.5403 38.7215 42.3569 37.9292 43.3976 36.9191C44.4904 35.8697 45.399 34.648 46.2678 33.7057C46.6165 33.3423 47.03 33.0162 47.2377 32.8987C48.1467 32.4192 50.9659 32.377 52.1491 32.4334L51.4542 33.423C49.3575 33.423 48.1851 33.6442 47.67 34.0376C47.4401 34.2003 47.1085 34.5423 46.7833 34.9574C46.0725 35.8881 45.2865 37.1629 44.9788 37.4075C45.5951 37.8364 46.2623 38.2018 47.3201 38.2018C49.0849 38.2018 50.358 37.1035 51.0537 36.4693L51.6415 36.8313C51.205 37.3995 50.7062 37.9832 50.0611 38.4201C49.3504 38.9034 48.4515 39.2115 47.9255 39.362C46.8991 39.1609 44.6451 38.7069 44.1137 38.6028C42.1512 39.3972 38.9712 40.6891 37.898 41.011C37.6618 41.067 37.4219 41.1057 37.1801 41.1268C36.3347 41.1745 35.1519 41.1657 34.0862 41.1519C33.329 41.1435 32.6062 41.149 32.2466 41.0787L31.2984 40.0971C32.1283 40.2534 32.454 40.299 33.2266 40.299C35.0771 40.299 36.2549 39.9959 36.6466 39.8955C36.9769 39.8169 37.0271 39.6213 36.9267 39.3265C36.7762 38.8524 36.5086 38.4029 36.093 37.9271C35.8685 37.6658 35.3693 37.2197 35.1611 37.083C34.9103 36.9083 34.6628 36.8673 33.9679 37.1027C33.3295 37.3209 31.3276 38.3988 30.4701 38.8633C30.0378 39.0878 29.7129 39.1517 28.9453 38.9728C28.1355 38.7847 26.1964 38.0722 25.4175 37.6069ZM30.9618 15.4195C31.0565 15.4205 31.1505 15.4028 31.2384 15.3675C31.3262 15.3322 31.4063 15.2799 31.474 15.2136C31.5417 15.1473 31.5956 15.0684 31.6328 14.9813C31.6699 14.8941 31.6895 14.8006 31.6905 14.7058V14.6987C31.6928 14.6019 31.6758 14.5056 31.6403 14.4155C31.6049 14.3254 31.5518 14.2433 31.4842 14.174C31.4165 14.1047 31.3357 14.0496 31.2464 14.012C31.1572 13.9744 31.0613 13.9551 30.9645 13.9551C30.8677 13.9551 30.7718 13.9744 30.6826 14.012C30.5933 14.0496 30.5125 14.1047 30.4449 14.174C30.3772 14.2433 30.3241 14.3254 30.2887 14.4155C30.2532 14.5056 30.2362 14.6019 30.2385 14.6987C30.2373 14.8885 30.3114 15.0711 30.4447 15.2062C30.578 15.3414 30.7594 15.4181 30.9492 15.4195H30.9618ZM58.8202 57.4797C58.8203 57.1983 58.7089 56.9283 58.5104 56.7288C58.312 56.5293 58.0426 56.4165 57.7611 56.4152H56.1971C55.9166 56.4149 55.6475 56.526 55.4489 56.724C55.2503 56.9221 55.1385 57.1909 55.138 57.4713V73.8886C55.138 74.0275 55.1654 74.165 55.2186 74.2933C55.2719 74.4216 55.3499 74.5381 55.4483 74.6361C55.5467 74.7341 55.6635 74.8117 55.792 74.8645C55.9205 74.9172 56.0582 74.944 56.1971 74.9434H57.7611C57.9 74.9438 58.0375 74.9167 58.1659 74.8639C58.2943 74.8111 58.411 74.7335 58.5094 74.6355C58.6078 74.5375 58.6859 74.4212 58.7393 74.293C58.7927 74.1649 58.8203 74.0274 58.8206 73.8886C58.8208 73.885 58.8208 73.8813 58.8206 73.8777L58.8202 57.4797ZM60.8182 57.912V58.6917C60.8191 58.8482 60.882 58.998 60.9932 59.1082C61.1043 59.2184 61.2546 59.28 61.4111 59.2796H72.2242C72.4605 59.2791 72.687 59.1852 72.8542 59.0182C73.0214 58.8513 73.1157 58.6249 73.1165 58.3886V57.0662C73.1165 56.5783 72.713 56.1284 72.2205 56.1736C72.2205 56.1736 61.7644 57.1979 61.4337 57.2401C61.2651 57.253 61.1077 57.3294 60.9934 57.4541C60.8791 57.5787 60.8165 57.7421 60.8182 57.9112V57.912ZM52.0642 74.9468C49.3729 74.9468 47.6805 72.8981 47.6805 70.6287L47.6751 64.0684H46.9008C46.8042 64.0684 46.7086 64.0494 46.6194 64.0124C46.5301 63.9754 46.4491 63.9212 46.3809 63.8528C46.3127 63.7845 46.2586 63.7034 46.2217 63.6141C46.1849 63.5248 46.166 63.4292 46.1662 63.3326V62.2238C46.1659 62.1272 46.1847 62.0315 46.2215 61.9422C46.2583 61.8528 46.3124 61.7717 46.3806 61.7033C46.4489 61.6349 46.53 61.5807 46.6192 61.5438C46.7085 61.5068 46.8042 61.4878 46.9008 61.4879L47.6751 61.4905V57.4534C47.6751 57.1797 47.7837 56.9172 47.9771 56.7236C48.1705 56.5299 48.4328 56.421 48.7065 56.4207H50.2367C50.3727 56.4207 50.5073 56.4476 50.6329 56.4998C50.7584 56.5519 50.8725 56.6284 50.9684 56.7247C51.0644 56.821 51.1404 56.9353 51.1922 57.0611C51.2439 57.1868 51.2703 57.3216 51.2698 57.4575V61.4896H53.653C53.8492 61.4888 54.0377 61.5658 54.1773 61.7038C54.3168 61.8417 54.396 62.0293 54.3976 62.2255V63.3309C54.3966 63.5277 54.3177 63.7161 54.1781 63.8549C54.0386 63.9936 53.8498 64.0715 53.653 64.0714H51.2698V70.1379C51.2698 71.3324 51.9936 72.1393 53.2888 72.1393H53.5029C53.717 72.1396 53.9222 72.2249 54.0735 72.3764C54.2248 72.528 54.3098 72.7333 54.3098 72.9475V74.1353C54.3101 74.35 54.2254 74.5561 54.0742 74.7086C53.923 74.8611 53.7176 74.9474 53.5029 74.9489L52.0642 74.9468ZM33.6455 68.0064C33.6455 64.5103 31.5772 61.0138 26.8682 61.0138C22.513 61.0113 20.0801 64.4154 20.0801 68.0044C20.0801 71.832 22.6986 75.1989 26.8917 75.1989C29.7723 75.1989 32.6099 73.6741 33.1472 71.189C33.2203 70.8545 32.9954 70.4134 32.52 70.4134H30.4626C30.2939 70.4107 30.1271 70.4499 29.9773 70.5275C29.8275 70.6052 29.6993 70.7188 29.6042 70.8583C29.0097 71.7216 28.1518 72.184 26.8799 72.184C25.0821 72.184 23.8249 70.7625 23.7292 69.188H32.4803C33.2826 69.188 33.6468 68.7532 33.6468 68.0044L33.6455 68.0064ZM23.7635 66.5109C23.904 64.964 25.2657 63.8209 26.8695 63.8209C28.4733 63.8209 29.8635 64.9623 29.9972 66.5109H23.7635ZM73.4856 68.0044C73.4856 64.5083 71.4236 61.0117 66.715 61.0117C62.3648 61.0117 59.9315 64.4154 59.9315 68.0044C59.9315 71.832 62.5429 75.1989 66.7464 75.1989C69.6229 75.1989 72.4525 73.6741 72.9923 71.189C73.0654 70.8545 72.8468 70.4134 72.3706 70.4134H70.3073C70.1379 70.4114 69.9705 70.4508 69.8199 70.5284C69.6692 70.6059 69.5399 70.7192 69.4431 70.8583C68.854 71.7216 67.9973 72.184 66.7255 72.184C64.9277 72.184 63.6734 70.7625 63.5743 69.188H72.3258C73.1269 69.188 73.4856 68.7532 73.4856 68.0044ZM63.614 66.5109C63.7428 64.964 65.105 63.8209 66.715 63.8209C68.3176 63.8209 69.7082 64.9623 69.8478 66.5109H63.614Z" fill="#828282"/>
<path fill-rule="evenodd" clip-rule="evenodd" d="M44.7394 56.5994H16.4199C16.2656 56.5985 16.1126 56.6282 15.9698 56.6866C15.827 56.745 15.6972 56.8311 15.5878 56.9399C15.4784 57.0487 15.3915 57.1781 15.3323 57.3205C15.273 57.463 15.2425 57.6158 15.2425 57.7701L15.3383 68.8976C15.3383 68.8976 9.24374 57.8679 8.92431 57.3014C8.62705 56.7738 7.98277 56.29 7.09181 56.29H4.75927C4.60631 56.2904 4.45492 56.3209 4.31377 56.3798C4.17261 56.4387 4.04446 56.5249 3.93665 56.6334C3.82885 56.7419 3.7435 56.8706 3.6855 57.0121C3.6275 57.1537 3.59798 57.3052 3.59864 57.4582V73.7822C3.60117 74.0902 3.72499 74.3848 3.94327 74.6022C4.16154 74.8195 4.45668 74.9421 4.7647 74.9433H6.25563C6.56531 74.9433 6.86238 74.8206 7.08179 74.602C7.3012 74.3835 7.42507 74.0869 7.42629 73.7772L7.32845 62.3306C7.32845 62.3306 13.4949 73.4737 13.7533 73.9047C14.112 74.5022 14.712 74.9424 15.5866 74.9424H17.7273C18.0351 74.9419 18.3301 74.8194 18.5478 74.6018C18.7655 74.3842 18.8881 74.0892 18.8887 73.7814V59.3639H44.7394C44.9505 59.3652 45.1534 59.2828 45.3038 59.1348C45.4542 58.9867 45.5398 58.7851 45.5417 58.5741V57.3997C45.5403 57.1875 45.4553 56.9845 45.305 56.8347C45.1548 56.6848 44.9516 56.6003 44.7394 56.5994Z" fill="#828282"/>
<path fill-rule="evenodd" clip-rule="evenodd" d="M40.153 63.6872C41.3805 63.6872 42.3007 64.1329 42.6377 64.9106C42.7941 65.2747 43.1076 65.3529 43.5282 65.3529H45.2207C45.5016 65.3529 45.821 65.1021 45.821 64.7471C45.821 62.7729 43.4709 61.0127 40.153 61.0127C36.7129 61.0127 34.4548 62.6495 34.4548 65.263C34.4548 67.2628 36.0356 68.451 37.9693 68.959C38.8473 69.1889 40.3608 69.5602 41.1008 69.7533C41.891 69.9578 42.5975 70.2078 42.5975 70.8793C42.5975 71.95 41.4687 72.3204 40.2366 72.3204C39.0659 72.3204 37.9061 71.7982 37.5762 70.9637C37.3839 70.4758 37.0369 70.4118 36.5285 70.4118H34.8064C34.5041 70.4118 34.1562 70.6652 34.1562 71.0653V71.2781C34.1562 73.1872 36.712 75.1798 40.2357 75.1798C42.7443 75.1798 46.2295 74.1463 46.2295 70.7898C46.2295 68.8507 44.9238 67.4994 42.8045 66.9643C41.9804 66.7523 39.9958 66.2485 39.5647 66.1364C38.7967 65.9341 38.0742 65.682 38.0742 65.0264C38.0742 64.023 38.994 63.6885 40.153 63.6885V63.6872Z" fill="#828282"/>
</g>
<defs>
<clipPath id="clip0_114_1370">
<rect width="79.38" height="78.8055" fill="white"/>
</clipPath>
</defs>
</svg>
