<svg width="13" height="14" viewBox="0 0 13 14" fill="none" xmlns="http://www.w3.org/2000/svg">
<g opacity="0.64">
<path d="M10.8942 12.8376V11.4984C10.8942 10.9656 10.6824 10.4548 10.3057 10.0781C9.97613 9.74852 9.54398 9.5451 9.08421 9.49939L8.88543 9.48958H3.52865C2.99589 9.48958 2.48509 9.70138 2.10837 10.0781C1.73165 10.4548 1.51986 10.9656 1.51986 11.4984V12.8376C1.51986 13.2074 1.22007 13.5072 0.850261 13.5072C0.480453 13.5072 0.180664 13.2074 0.180664 12.8376V11.4984C0.180664 10.6104 0.53365 9.75911 1.16152 9.13125C1.78939 8.50338 2.64071 8.15039 3.52865 8.15039H8.88543L9.05152 8.15431C9.87899 8.19538 10.6639 8.54263 11.2526 9.13125C11.8804 9.75911 12.2334 10.6104 12.2334 11.4984V12.8376C12.2334 13.2074 11.9336 13.5072 11.5638 13.5072C11.194 13.5072 10.8942 13.2074 10.8942 12.8376Z" fill="white"/>
<path d="M8.21615 3.46322C8.21615 2.3538 7.31679 1.45443 6.20736 1.45443C5.09794 1.45443 4.19857 2.3538 4.19857 3.46322C4.19857 4.57264 5.09794 5.47201 6.20736 5.47201C7.31679 5.47201 8.21615 4.57264 8.21615 3.46322ZM9.55535 3.46322C9.55535 5.31226 8.0564 6.81121 6.20736 6.81121C4.35832 6.81121 2.85938 5.31226 2.85938 3.46322C2.85938 1.61418 4.35832 0.115234 6.20736 0.115234C8.0564 0.115234 9.55535 1.61418 9.55535 3.46322Z" fill="white"/>
</g>
</svg>
