<svg width="14" height="16" viewBox="0 0 14 16" fill="none" xmlns="http://www.w3.org/2000/svg">
<path d="M7.78777 15.7408C7.56774 15.8813 7.28111 15.8813 7.06109 15.7408L7.42443 15.2185L7.78777 15.7408ZM12.6584 6.80886C12.5941 5.56756 12.0515 4.38941 11.1301 3.50644C10.1474 2.56464 8.81425 2.03577 7.42443 2.03577C6.03461 2.03577 4.70147 2.56464 3.71872 3.50644C2.73597 4.44824 2.1841 5.72584 2.1841 7.05775C2.1841 9.00253 3.50427 10.8898 4.95203 12.3544C5.66253 13.0731 6.37557 13.6614 6.9114 14.0703C7.11048 14.2222 7.28505 14.3479 7.42443 14.4467C7.56381 14.3479 7.73838 14.2222 7.93746 14.0703C8.47329 13.6614 9.18633 13.0731 9.89682 12.3544C11.3446 10.8898 12.6648 9.00253 12.6648 7.05775L12.6584 6.80886ZM13.9748 7.05775C13.9748 9.50718 12.3473 11.7003 10.8474 13.2175C10.0841 13.9897 9.32324 14.6177 8.7537 15.0523C8.46854 15.27 8.23005 15.4402 8.06156 15.5569C7.97741 15.6151 7.91041 15.6602 7.8639 15.6911C7.84073 15.7065 7.82227 15.7184 7.80952 15.7267C7.80314 15.7308 7.79778 15.7342 7.79417 15.7365C7.79241 15.7376 7.79077 15.7389 7.78969 15.7396L7.78841 15.7402V15.7408C7.78822 15.7409 7.78778 15.7408 7.42443 15.2185C7.06108 15.7408 7.06064 15.7409 7.06045 15.7408V15.7402L7.05917 15.7396C7.05809 15.7389 7.05645 15.7376 7.05469 15.7365C7.05107 15.7342 7.04571 15.7308 7.03934 15.7267C7.02659 15.7184 7.00813 15.7065 6.98496 15.6911C6.93845 15.6602 6.87145 15.6151 6.7873 15.5569C6.61881 15.4402 6.38032 15.27 6.09516 15.0523C5.52562 14.6177 4.76476 13.9897 4.00146 13.2175C2.50156 11.7003 0.874023 9.50718 0.874023 7.05775C0.874023 5.39286 1.56401 3.79602 2.79245 2.61876C4.02089 1.44151 5.68715 0.780273 7.42443 0.780273C9.16171 0.780273 10.828 1.44151 12.0564 2.61876C13.2849 3.79602 13.9748 5.39286 13.9748 7.05775Z" fill="white" fill-opacity="0.64"/>
<path d="M8.73493 6.67583C8.73493 5.95229 8.14839 5.36575 7.42485 5.36575C6.70131 5.36575 6.11477 5.95229 6.11477 6.67583C6.11477 7.39936 6.70131 7.98591 7.42485 7.98591C8.14839 7.98591 8.73493 7.39936 8.73493 6.67583ZM10.045 6.67583C10.045 8.1229 8.87193 9.29599 7.42485 9.29599C5.97777 9.29599 4.80469 8.1229 4.80469 6.67583C4.80469 5.22875 5.97777 4.05566 7.42485 4.05566C8.87193 4.05566 10.045 5.22875 10.045 6.67583Z" fill="white" fill-opacity="0.64"/>
</svg>
