<svg width="58" height="65" viewBox="0 0 58 65" fill="none" xmlns="http://www.w3.org/2000/svg">
<g opacity="0.47">
<path d="M26.7196 0C27.9363 0.294557 29.0376 0.787151 29.8839 1.75038C30.0136 1.84962 30.1766 1.89565 30.3393 1.87904C32.625 1.82149 34.3481 2.8626 35.5887 4.67903C36.2005 5.57624 36.6083 6.61395 37.0995 7.59073C37.1827 7.76002 37.2372 7.92931 37.3204 8.14938L39.6842 7.45195V64.8685L0 58.0327C0.100264 57.2066 0.190372 56.3974 0.295734 55.5899C1.13523 49.1255 1.97645 42.6605 2.81935 36.1949C3.54159 30.6491 4.27912 25.1067 4.97587 19.5592C5.11012 18.4961 5.61651 17.9087 6.64464 17.6141C8.71791 17.0199 10.7674 16.3462 12.8338 15.7266C13.1873 15.6199 13.3182 15.4507 13.3929 15.0867C14.3038 10.6582 16.1408 6.67491 19.2388 3.33153C20.7683 1.68438 22.5696 0.467223 24.8468 0.0795592C24.8808 0.0795592 24.908 0.0270857 24.9386 0H26.7196ZM12.013 44.6524C11.6051 46.391 11.2228 48.099 10.7929 49.7936C10.6875 50.2134 10.7827 50.4454 11.1021 50.7027C14.003 53.0422 17.3253 53.98 21.0079 53.611C24.4815 53.2623 26.9949 51.4746 28.351 48.2616C28.7926 47.1675 29.0742 46.0159 29.1871 44.842C29.527 41.6256 28.6399 38.807 26.1401 36.6418C25.1698 35.7954 24.0737 35.1047 23.0319 34.3463C22.1822 33.7233 21.2527 33.1816 20.4828 32.4723C19.142 31.2416 19.3901 29.1983 20.9773 28.296C21.6094 27.9597 22.2964 27.7379 23.0064 27.6409C24.8757 27.3498 26.6686 27.7442 28.4444 28.3892C28.5107 28.1911 28.577 28.0167 28.6246 27.8356C29.1888 25.7381 29.7224 23.6339 30.324 21.5483C30.4939 20.9626 30.324 20.7764 29.7955 20.6325C27.8123 20.1009 25.8121 20.1247 23.8051 20.4023C17.3916 21.313 13.4609 25.5824 12.9188 31.0249C12.5789 34.3734 13.5238 37.2005 16.3091 39.2742C17.1231 39.8803 17.9558 40.4592 18.7613 41.0805C19.5668 41.7018 20.3418 42.4348 20.6851 43.4505C21.3427 45.4277 20.1515 47.1426 18.0748 47.0055C16.9838 46.931 15.8809 46.5805 14.846 46.1793C13.8756 45.8018 12.9936 45.1924 12.013 44.6524ZM15.507 14.7278C15.6922 14.7854 15.7364 14.8175 15.7687 14.8074C17.4273 14.2995 19.0876 13.8018 20.7377 13.2686C20.9077 13.2144 21.0623 12.969 21.1218 12.7794C21.3206 12.1581 21.4378 11.5097 21.6469 10.8918C22.5934 8.0732 23.9139 5.47467 26.2642 3.53127C26.6754 3.1927 27.1326 2.90491 27.6237 2.55619C26.3865 1.90782 25.1936 2.01955 24.0091 2.47154C22.6496 2.98956 21.5653 3.89695 20.6103 4.95499C18.9839 6.76983 17.6928 8.85715 16.7969 11.1203C16.3091 12.3003 15.9318 13.5208 15.507 14.7278ZM23.3242 12.4797C25.5623 11.789 27.6253 11.1627 29.6765 10.4991C29.775 10.4464 29.859 10.3703 29.9209 10.2776C29.9829 10.1849 30.021 10.0784 30.0317 9.96751C30.0283 9.03986 29.9625 8.1135 29.8346 7.19463C29.6731 6.21277 29.3656 5.2563 29.0936 4.17626C25.739 6.0621 24.4373 9.09909 23.3293 12.4797H23.3242ZM35.2199 8.80454C34.6897 6.43454 32.8238 4.10855 31.4184 4.1441L32.3139 9.7068L35.2199 8.80454Z" fill="#828282"/>
<path d="M41.2127 6.86816C42.452 8.05057 43.5869 9.16445 44.7635 10.2338C45.0299 10.4607 45.3641 10.5961 45.7156 10.6193C47.0594 10.681 48.4066 10.6913 49.7538 10.6947C50.3787 10.6947 50.6798 10.9329 50.7738 11.5772C51.4701 16.3754 52.2081 21.1735 52.9287 25.9717C53.7816 31.6335 54.6328 37.2954 55.4822 42.9572C56.3189 48.5333 57.1567 54.1106 57.9956 59.689C58.002 59.79 58.002 59.8913 57.9956 59.9923L41.2109 64.105L41.2127 6.86816Z" fill="#828282"/>
</g>
</svg>
